<svg width="20" height="20" viewBox="0 0 20 20" fill="none" xmlns="http://www.w3.org/2000/svg">
<path d="M19.9668 7.74195C19.9251 7.64715 19.8473 7.57281 19.7508 7.53531L18.1611 6.91805L19.0751 4.5643C19.1126 4.46773 19.1102 4.3602 19.0684 4.26539C19.0266 4.17059 18.9489 4.09625 18.8523 4.05875L16.4062 3.10891V1.95312C16.4062 1.68945 16.3547 1.43359 16.2527 1.19297C16.1543 0.960156 16.0132 0.751562 15.8339 0.572266C15.6546 0.392969 15.4461 0.251953 15.2132 0.153516C14.9727 0.0515625 14.7168 0 14.4531 0H0.390625C0.287891 0 0.187109 0.0417969 0.114453 0.114453C0.0417578 0.187109 0 0.287891 0 0.390625V19.6094C0 19.7121 0.0417578 19.8129 0.114453 19.8855C0.187148 19.9582 0.287891 20 0.390625 20H14.4531C14.7168 20 14.9727 19.9484 15.2133 19.8465C15.4461 19.748 15.6547 19.6074 15.834 19.4277C16.0133 19.2484 16.1543 19.0398 16.2527 18.807C16.3547 18.5664 16.4062 18.3105 16.4062 18.0469V17.5055C16.4062 17.2902 16.2309 17.1148 16.0156 17.1148C15.8004 17.1148 15.6254 17.2898 15.625 17.5051V17.5055V18.0469C15.6238 18.6918 15.098 19.2176 14.4531 19.2188H2.34375V0.78125H14.4531C15.098 0.782422 15.6238 1.3082 15.625 1.95312V13.9898C15.625 14.2055 15.8004 14.3805 16.0156 14.3805C16.2309 14.3805 16.4062 14.2055 16.4062 13.9898V13.491L17.3029 13.8392C17.3494 13.8572 17.3972 13.8658 17.4443 13.8658C17.6007 13.8658 17.7484 13.7711 17.8085 13.6164L19.9735 8.04086C20.011 7.94426 20.0086 7.83676 19.9668 7.74195ZM1.5625 19.2188H0.78125V0.78125H1.5625V19.2188ZM16.4062 3.94699L18.2054 4.64563L17.4329 6.63523L16.4062 6.2366V3.94699ZM17.2216 12.9695L16.4062 12.6529V7.07469L19.1039 8.12219L17.2216 12.9695Z" fill="#333333"/>
<path d="M16.0156 16.1382C16.2314 16.1382 16.4062 15.9633 16.4062 15.7476C16.4062 15.5318 16.2314 15.3569 16.0156 15.3569C15.7999 15.3569 15.625 15.5318 15.625 15.7476C15.625 15.9633 15.7999 16.1382 16.0156 16.1382Z" fill="#333333"/>
<path d="M6.69926 13.0859H11.2989C11.5146 13.0859 11.6895 12.9111 11.6895 12.6953V9.31895C12.4929 9.13352 13.0957 8.40965 13.0957 7.55371C13.0957 6.55484 12.2831 5.74219 11.2842 5.74219C10.8619 5.74219 10.4553 5.8916 10.1343 6.15488C9.81328 5.8916 9.40676 5.74219 8.98441 5.74219C8.56207 5.74219 8.15555 5.8916 7.83449 6.15488C7.51344 5.8916 7.10695 5.74219 6.68457 5.74219C5.6857 5.74219 4.87305 6.55484 4.87305 7.55371C4.87305 8.42371 5.48953 9.15242 6.30859 9.32602V12.6953C6.30863 12.9111 6.48355 13.0859 6.69926 13.0859ZM5.65434 7.55371C5.65434 6.98563 6.11652 6.52344 6.68461 6.52344C7.01305 6.52344 7.3248 6.68258 7.51855 6.9491C7.59207 7.05023 7.70953 7.11008 7.83453 7.11008C7.95953 7.11008 8.07699 7.05023 8.15051 6.9491C8.34422 6.68258 8.65597 6.52344 8.98441 6.52344C9.31285 6.52344 9.62461 6.68258 9.81836 6.9491C9.89187 7.05023 10.0093 7.11008 10.1343 7.11008C10.2593 7.11008 10.3768 7.05023 10.4503 6.9491C10.6441 6.68258 10.9558 6.52344 11.2843 6.52344C11.8523 6.52344 12.3145 6.98563 12.3145 7.55371C12.3145 8.1159 11.8571 8.57793 11.2949 8.58363C11.293 8.58363 10.6544 8.58398 10.6544 8.58398C10.4387 8.58398 10.2637 8.75887 10.2637 8.97461C10.2637 9.19035 10.4387 9.36523 10.6544 9.36523H10.9083V12.3047H7.08988V9.36523H7.34379C7.55949 9.36523 7.73441 9.19035 7.73441 8.97461C7.73441 8.75887 7.55949 8.58398 7.34379 8.58398C7.34379 8.58398 6.68742 8.58375 6.68062 8.58398C6.11434 8.58184 5.65434 8.12047 5.65434 7.55371Z" fill="#333333"/>
</svg>
