<svg width="26" height="26" viewBox="0 0 26 26" fill="none" xmlns="http://www.w3.org/2000/svg">
<path d="M4.46875 6.09375C5.6875 6.09375 6.09375 5.28125 6.09375 5.28125L5.28125 7.71875H9.34375L8.53125 5.28125C8.53125 5.28125 8.9375 6.09375 10.1562 6.09375C10.9688 6.09375 11.7812 5.28125 11.7812 4.0625C11.7812 2.84375 10.5625 1.21875 7.3125 1.21875C4.0625 1.21875 2.84375 2.84375 2.84375 4.0625C2.84375 5.28125 3.65625 6.09375 4.46875 6.09375Z" fill="#333333"/>
<path d="M24.0057 20.7188H20.7188H20.3125H18.2812H1.21875V22.3438C1.21875 23.6901 2.30994 24.7812 3.65625 24.7812H15.8438C17.1901 24.7812 18.2812 23.6901 18.2812 22.3438V21.5312H20.5952C20.815 21.8156 21.1437 22.0131 21.5264 22.048L23.9354 22.267C24.3896 22.308 24.7812 21.9505 24.7812 21.4943C24.7812 21.0661 24.4339 20.7188 24.0057 20.7188Z" fill="#333333"/>
<path d="M11.8015 14.239C10.6908 15.3497 10.6908 17.1502 11.8015 18.2609C12.9122 19.3716 14.7127 19.3716 15.8234 18.2609L19.8449 14.239C21.2728 12.8111 21.2728 10.4963 19.8449 9.06829C18.4169 7.64032 16.1021 7.64032 14.6741 9.06829C13.7779 9.96448 13.4448 11.21 13.6739 12.3666L11.8015 14.239ZM16.9723 10.2176C17.2896 9.90029 17.8039 9.90029 18.1212 10.2176C18.4384 10.5349 18.4384 11.0492 18.1212 11.3664C17.8039 11.6837 17.2896 11.6837 16.9723 11.3664C16.655 11.0492 16.655 10.5349 16.9723 10.2176Z" fill="#333333"/>
<path d="M18.6875 1.625V0.8125C16.4474 0.8125 14.625 2.63494 14.625 4.875H15.4375C15.4375 3.08303 16.8955 1.625 18.6875 1.625Z" fill="#333333"/>
<path d="M2.84375 9.34375H3.65625C3.65625 7.99947 2.56303 6.90625 1.21875 6.90625V7.71875C2.11494 7.71875 2.84375 8.44756 2.84375 9.34375Z" fill="#333333"/>
<path d="M10.5625 10.5625H11.375C11.375 9.44247 12.2862 8.53125 13.4062 8.53125V7.71875C11.8381 7.71875 10.5625 8.99437 10.5625 10.5625Z" fill="#333333"/>
<path d="M19.5 0.8125H20.3125V1.625H19.5V0.8125Z" fill="#333333"/>
<path d="M17.0625 18.6875H17.875V19.5H17.0625V18.6875Z" fill="#333333"/>
<path d="M1.69498 17.5386C2.32954 18.1732 3.35857 18.1732 3.99313 17.5386C4.10932 17.4224 4.19707 17.29 4.2706 17.1519C4.68985 17.1543 5.10951 16.9967 5.42923 16.6769C5.4922 16.614 5.54663 16.5461 5.59701 16.4763L7.44017 18.6875L9.73832 16.3893L7.5267 14.5462C7.59657 14.4958 7.66442 14.4414 7.72738 14.3784C8.0471 14.0587 8.20473 13.6386 8.20229 13.2198C8.34042 13.1462 8.47285 13.0585 8.58904 12.9423C9.2236 12.3077 9.2236 11.2787 8.58904 10.6441C7.95448 10.0096 6.92545 10.0096 6.29088 10.6441C5.65632 10.0096 4.62729 10.0096 3.99273 10.6441C3.87654 10.7603 3.78879 10.8928 3.71526 11.0309C3.29601 11.0284 2.87635 11.1861 2.55663 11.5058C2.23691 11.8255 2.07929 12.2452 2.08173 12.6644C1.9436 12.7379 1.81116 12.8257 1.69498 12.9419C1.06041 13.5764 1.06041 14.6055 1.69498 15.24C1.06001 15.875 1.06001 16.9036 1.69498 17.5386Z" fill="#333333"/>
</svg>
