<svg width="15" height="24" viewBox="0 0 15 24" fill="none" xmlns="http://www.w3.org/2000/svg">
<path d="M13 0H1.44444C1.06135 0 0.693955 0.152182 0.423069 0.423068C0.152183 0.693954 4.60872e-07 1.06135 4.60872e-07 1.44444V21.6161C-0.000228181 21.9024 0.0846211 22.1823 0.243775 22.4203C0.402929 22.6582 0.629208 22.8435 0.893883 22.9527C1.15856 23.0618 1.44969 23.0898 1.73031 23.0331C2.01094 22.9765 2.2684 22.8377 2.47 22.6344L7.19333 17.9256L11.9817 22.6922C12.1841 22.8934 12.4416 23.0302 12.7216 23.0852C13.0017 23.1402 13.2918 23.111 13.5553 23.0013C13.8188 22.8915 14.0438 22.7062 14.2021 22.4687C14.3603 22.2312 14.4447 21.9521 14.4444 21.6667V1.44444C14.4444 1.06135 14.2923 0.693954 14.0214 0.423068C13.7505 0.152182 13.3831 0 13 0Z" fill="#333333"/>
</svg>
