<svg width="18" height="20" viewBox="0 0 18 20" fill="none" xmlns="http://www.w3.org/2000/svg">
<path d="M15.1914 0H2.80859C1.35469 0 0.171875 1.18281 0.171875 2.63672V20L6.94922 16.6113L13.7266 20V10.5859H17.8281V2.63672C17.8281 1.18281 16.6453 0 15.1914 0ZM12.5547 2.63672V18.1039L6.94922 15.3011L1.34375 18.1039V2.63672C1.34375 1.82898 2.00086 1.17188 2.80859 1.17188H13C12.7189 1.59109 12.5547 2.09516 12.5547 2.63672ZM16.6562 9.41406H13.7266V2.63672C13.7266 1.82898 14.3837 1.17188 15.1914 1.17188C15.9991 1.17188 16.6562 1.82898 16.6562 2.63672V9.41406Z" fill="#333333"/>
</svg>
