<svg width="20" height="20" viewBox="0 0 20 20" fill="none" xmlns="http://www.w3.org/2000/svg">
<path d="M4.47667 19.5956C4.25755 19.5956 4.03995 19.5273 3.85425 19.393C3.50832 19.1423 3.34673 18.7114 3.44088 18.2956L4.72753 12.6278L0.364015 8.80115C0.0432668 8.52114 -0.0792644 8.07771 0.0524223 7.67197C0.184109 7.26699 0.542395 6.98027 0.9666 6.94106L6.74006 6.4169L9.02268 1.07512C9.19099 0.682654 9.5743 0.429199 10.0002 0.429199C10.4261 0.429199 10.8094 0.682654 10.9777 1.0742L13.2603 6.4169L19.0329 6.94106C19.458 6.97936 19.8163 7.26699 19.948 7.67197C20.0796 8.07695 19.9579 8.52114 19.6371 8.80115L15.2736 12.6271L16.5603 18.2946C16.6546 18.7114 16.4928 19.1423 16.147 19.3922C15.802 19.6422 15.342 19.6614 14.9786 19.4431L10.0002 16.468L5.02173 19.4447C4.85342 19.5447 4.66588 19.5956 4.47667 19.5956ZM10.0002 15.1864C10.1894 15.1864 10.3768 15.2372 10.5452 15.3371L15.2437 18.1472L14.0294 12.7978C13.9427 12.4171 14.0719 12.0196 14.3661 11.762L18.4863 8.14867L13.0352 7.65366C12.6428 7.6178 12.3052 7.37106 12.1519 7.00942L10.0002 1.96839L7.8459 7.01018C7.69422 7.36938 7.35669 7.61612 6.96514 7.65198L1.51334 8.14699L5.63332 11.7604C5.92843 12.0187 6.05752 12.4154 5.97009 12.7971L4.75667 18.1463L9.45513 15.3371C9.62344 15.2372 9.81097 15.1864 10.0002 15.1864ZM6.69596 6.52021C6.69596 6.52021 6.69596 6.52112 6.69505 6.52189L6.69596 6.52021ZM13.3027 6.51777L13.3036 6.51944C13.3036 6.51853 13.3036 6.51853 13.3027 6.51777Z" fill="#333333"/>
</svg>
